<?xml version="1.0" standalone="no"?><!DOCTYPE svg PUBLIC "-//W3C//DTD SVG 1.1//EN" "http://www.w3.org/Graphics/SVG/1.1/DTD/svg11.dtd"><svg t="1710896354660" class="icon" viewBox="0 0 1161 1024" version="1.1" xmlns="http://www.w3.org/2000/svg" p-id="9935" xmlns:xlink="http://www.w3.org/1999/xlink" width="72.5625" height="64"><path d="M1106.661194 318.994764l-268.062828-268.062827c-61.207679-61.207679-127.776614-67.015707-178.708551-16.530541l-103.65096 103.204189-19.211169 20.998254A709.026178 709.026178 0 0 0 437.397668 102.757417l-7.148342-3.574171A141.626527 141.626527 0 0 0 411.9317 89.354276l-6.701571-3.1274H402.996272a182.282723 182.282723 0 0 0-77.73822-25.91274 75.504363 75.504363 0 0 0-53.165794 22.78534L40.664684 317.65445A110.352531 110.352531 0 0 0 0.902031 417.284468a29.486911 29.486911 0 0 1 0 7.595113 163.965096 163.965096 0 0 0 44.677138 71.930192c4.914485 5.808028 10.722513 12.062827 14.743456 17.870855a499.04363 499.04363 0 0 1 38.86911 57.186737l4.914485 8.488656a528.977312 528.977312 0 0 0 88.907504 112.586387l291.741711 293.082025a130.457243 130.457243 0 0 0 73.717277 37.528796h12.95637a75.504363 75.504363 0 0 0 54.95288-21.445027l6.70157-6.70157c25.465969-25.91274-10.275742-63.888307-10.275741-63.888307l-118.841187-118.841187a17.424084 17.424084 0 0 1-4.914485-11.616056 13.849913 13.849913 0 0 1 4.914485-11.169284 15.636998 15.636998 0 0 1 11.616056-4.914486 13.849913 13.849913 0 0 1 11.169284 4.914486l119.287958 118.841186s44.677138 37.975567 76.397906 16.530541l22.338569-20.104712c27.253054-30.827225-4.914485-70.143106-4.914485-70.143106l-128.223386-129.116929a17.424084 17.424084 0 0 1-4.914485-11.616055 13.849913 13.849913 0 0 1 4.914485-11.169285 15.636998 15.636998 0 0 1 11.616056-4.914485 13.849913 13.849913 0 0 1 11.169284 4.914485l136.265271 134.031414s33.061082 35.294939 63.888307 19.211169l8.488656-7.148342 25.91274-22.78534 2.680629-3.574171a61.207679 61.207679 0 0 0-4.020943-71.930192l-142.073298-141.626527a18.317627 18.317627 0 0 1-4.914485-11.616056 13.849913 13.849913 0 0 1 4.914485-11.169285 16.08377 16.08377 0 0 1 11.616056-5.361256 14.296684 14.296684 0 0 1 11.169284 5.361256l113.47993 113.033159a76.844677 76.844677 0 0 0 89.354276 11.616056 70.589878 70.589878 0 0 0 24.572426-39.762653 92.481675 92.481675 0 0 0-28.593368-89.354276L698.312154 312.739965s-9.382199-5.361257-15.636999 0c-33.954625 34.401396-61.207679 61.65445-83.099476 80.86562a156.369983 156.369983 0 0 1-79.078534 34.401396 125.989529 125.989529 0 0 1-58.973822-4.914485l8.935427 2.680628a102.310646 102.310646 0 0 1-44.677137-29.486911 14.743455 14.743455 0 0 1-4.467714-11.169285 13.403141 13.403141 0 0 1 4.467714-10.722513l28.593368-29.040139 260.020942-260.020943a31.273997 31.273997 0 0 1 28.593368-12.062827 86.673647 86.673647 0 0 1 44.677138 28.593368l268.062828 268.062828c25.019197 25.019197 47.804538 60.760908 18.317626 89.354275l-54.95288 54.95288a37.082024 37.082024 0 0 0-10.722513 25.91274 37.528796 37.528796 0 0 0 10.722513 25.91274 36.635253 36.635253 0 0 0 25.91274 10.722513 35.74171 35.74171 0 0 0 25.465969-10.722513l55.399651-55.399651c53.165794-51.82548 46.017452-126.4363-19.211169-191.664922z" fill="#636ade" p-id="9936"></path></svg>